<svg xmlns="http://www.w3.org/2000/svg" height="40" viewBox="0 96 960 960" width="40" style="fill:rgb(110, 110, 110)"><path d="M480 991.827q-85.185 0-161.02-32.819-75.835-32.819-132.502-89.486-56.667-56.667-89.486-132.497-32.819-75.83-32.819-161.01 0-87.551 33.089-163.293 33.088-75.742 90.775-132.087 57.687-56.346 134.747-88.592 77.059-32.247 164.82-32.247 82.28 0 156.31 28.042 74.029 28.042 130.152 77.725 56.123 49.683 89.13 117.695 33.008 68.011 33.008 147.611 0 113.725-65.993 182.675-65.993 68.949-174.877 68.949h-63.927q-13.493 0-22.855 10.247-9.363 10.246-9.363 23.015 0 20.869 11.84 35.384 11.841 14.514 11.841 38.398 0 45.768-28.555 74.029Q525.76 991.827 480 991.827ZM480 576Zm-223.014 30.666q21.999 0 37.666-15.666 15.667-15.667 15.667-37.667t-15.667-37.666Q278.985 500 256.986 500q-22 0-37.667 15.667-15.667 15.666-15.667 37.666 0 22 15.667 37.667 15.667 15.666 37.667 15.666Zm121.173-162.333q22.189 0 37.855-15.667Q431.681 413 431.681 391q0-22.377-15.667-37.855-15.666-15.478-37.666-15.478-22.377 0-37.855 15.478-15.478 15.478-15.478 37.667 0 22.188 15.478 37.854 15.478 15.667 37.666 15.667Zm203.682 0q22.188 0 37.854-15.667Q635.362 413 635.362 391q0-22.377-15.667-37.855-15.666-15.478-37.666-15.478-22.377 0-37.855 15.478-15.478 15.478-15.478 37.667 0 22.188 15.478 37.854 15.478 15.667 37.667 15.667Zm123.188 162.333q22 0 37.667-15.666 15.666-15.667 15.666-37.667t-15.666-37.666Q727.029 500 705.029 500q-22.377 0-37.855 15.667-15.478 15.666-15.478 37.666 0 22 15.478 37.667 15.478 15.666 37.855 15.666ZM477.362 903.681q8.685 0 13.118-4.097 4.433-4.098 4.433-12.52 0-14.165-14.949-26.803-14.95-12.637-14.95-50.941 0-46.805 31.446-80.889 31.445-34.083 78.113-34.083h80.761q71.536 0 111.942-42.124 40.405-42.123 40.405-117.775 0-128.333-96.593-207.232-96.593-78.898-223.411-78.898-139.913 0-237.636 95.299-97.722 95.3-97.722 232.653 0 135.99 95.224 231.7 95.225 95.71 229.819 95.71Z"/></svg>