<svg xmlns="http://www.w3.org/2000/svg" height="40" viewBox="0 96 960 960" width="40" style="fill:rgb(110, 110, 110)" ><path d="M478.116 911.827q-139.551 0-237.689-98.138t-98.138-237.596q0-139.458 98.138-237.877 98.138-98.42 237.689-98.42 83.624 0 150.548 33.903t115.221 94.982V239.796h74.203v285.841H531.681V452h165.363q-36.377-56.029-91.856-89.855-55.478-33.826-127.072-33.826-103.645 0-175.663 71.998-72.018 71.999-72.018 175.616 0 103.618 72.021 175.683t175.671 72.065q77.974 0 143.04-44.826 65.065-44.826 91.964-118.188h91.377q-29.232 111.739-119.85 181.449-90.618 69.711-206.542 69.711Z" /></svg>